<?xml version="1.0" encoding="UTF-8"?>
<!DOCTYPE svg PUBLIC "-//W3C//DTD SVG 1.0//EN" "http://www.w3.org/TR/2001/REC-SVG-20010904/DTD/svg10.dtd">
<!-- Creator: CorelDRAW X8 -->
<svg xmlns="http://www.w3.org/2000/svg" xml:space="preserve" width="422mm" height="96mm" version="1.0" style="shape-rendering:geometricPrecision; text-rendering:geometricPrecision; image-rendering:optimizeQuality; fill-rule:evenodd; clip-rule:evenodd"
viewBox="0 0 42200 9600"
 xmlns:xlink="http://www.w3.org/1999/xlink">
 <defs>
  <style type="text/css">
   <![CDATA[
    .fil0 {fill:#0F9588;fill-rule:nonzero}
   ]]>
  </style>
 </defs>
 <g id="Capa_x0020_1">
  <metadata id="CorelCorpID_0Corel-Layer"/>
  <g id="_2271476807760">
   <path id="_477763544" class="fil0" d="M11454 7062l0 -4331c0,-190 -86,-312 -206,-312l-1065 0c-120,0 -197,109 -197,312l0 4331 1468 0 0 0z"/>
   <path id="_477763784" class="fil0" d="M5299 7062l1408 0 0 -3241c249,-252 480,-365 893,-365 257,0 412,139 412,557l0 3049 1408 0 0 -3032c0,-923 -232,-1672 -1348,-1672 -696,0 -1039,287 -1365,558l0 -2666 -1408 0 0 6812 0 0z"/>
   <path id="_477763880" class="fil0" d="M12081 7062l1407 0 0 -3241c250,-252 481,-365 893,-365 258,0 412,139 412,557l0 3049 1408 0 0 -3032c0,-923 -232,-1672 -1348,-1672 -695,0 -1021,279 -1365,558l-249 -480 -1158 0 0 4626 0 0z"/>
   <path id="_477763856" class="fil0" d="M21197 3229l0 -810 -2807 0c-1073,0 -1614,540 -1614,1646 0,462 129,1045 507,1289 -378,131 -541,462 -541,854 0,523 240,836 481,958l-481 375 0 531c0,923 635,1341 1442,1341l1348 0c1125,0 1477,-627 1477,-1341l0 -488c0,-1010 -567,-1428 -1434,-1428l-1245 0c-189,0 -343,-18 -343,-209 0,-192 206,-183 343,-183l953 0c1314,0 1614,-784 1614,-1507 0,-523 -60,-671 -137,-871l437 -157 0 0zm-3039 4024c0,0 224,18 352,18l704 0c284,0 395,148 395,357l0 270c0,226 -17,418 -420,418l-558 0c-309,0 -473,-52 -473,-444l0 -619 0 0zm1331 -3188c0,418 -112,593 -489,593l-352 0c-335,0 -464,-166 -464,-593 0,-296 52,-540 464,-540l343 0c335,0 490,105 498,540z"/>
   <path id="_477764264" class="fil0" d="M25245 7062l1408 0 0 -2744c171,-470 532,-514 961,-514 266,0 541,0 670,9l0 -1368c-129,-52 -284,-52 -464,-52 -515,0 -927,313 -1167,627l-189 -584 -1219 0 0 4626 0 0z"/>
   <path id="_477764432" class="fil0" d="M32627 7062l0 -3171c0,-1219 -687,-1542 -1768,-1542 -850,0 -1425,70 -2026,323l0 862c206,-17 1494,-96 1811,-96 369,0 575,35 575,514 9,9 0,192 0,192 0,8 -1133,0 -1133,0 -1073,0 -1408,644 -1408,1306l0 401c0,549 378,1228 1348,1263 661,17 1133,-409 1193,-540l292 488 1116 0 0 0zm-1408 -1377c0,0 -291,331 -729,331 -198,0 -404,-8 -404,-383l0 -148c0,-174 26,-409 327,-436l806 -69 0 705 0 0z"/>
   <path id="_477764552" class="fil0" d="M33203 4745c0,1864 652,2360 1493,2360 721,-9 1563,87 2215,-313l0 -863c0,0 -721,70 -1511,70 -618,0 -790,-105 -790,-1237 0,-1254 224,-1272 790,-1272 764,0 1451,53 1451,53l0 -854c-807,-296 -1708,-296 -2155,-296 -875,0 -1493,488 -1493,2352l0 0z"/>
   <polygon id="_477764528" class="fil0" points="40396,4483 41993,2454 40233,2454 39109,3969 38886,3969 38886,1139 37478,1139 37478,7079 38886,7079 38886,5006 39109,5006 40328,7079 41993,7079 "/>
   <path id="_477764672" class="fil0" d="M21613 3464l695 0 0 1943c0,1228 438,1655 1116,1655l1151 0 0 -854c-52,0 -498,-174 -498,-174 -223,-105 -361,-236 -361,-889l0 -1681 910 0 0 -1036 -910 0 0 -1289 -1185 0 -223 1289 -695 287 0 749 0 0z"/>
   <polygon id="_477765848" class="fil0" points="4698,3828 4698,2419 153,2419 153,3828 1790,3828 1790,7114 3243,7114 3243,3828 "/>
   <path id="_477765704" class="fil0" d="M10002 7932l0 1237c0,0 0,244 245,244l962 0c0,0 245,0 245,-244l0 -1237 -1452 0 0 0z"/>
  </g>
 </g>
</svg>
